<?xml version="1.0" standalone="no"?>
<!DOCTYPE svg PUBLIC "-//W3C//DTD SVG 20010904//EN"
 "http://www.w3.org/TR/2001/REC-SVG-20010904/DTD/svg10.dtd">
<svg version="1.0" xmlns="http://www.w3.org/2000/svg"
 width="128.000000pt" height="128.000000pt" viewBox="0 0 128.000000 128.000000"
 preserveAspectRatio="xMidYMid meet">
<metadata>
Created by potrace 1.11, written by Peter Selinger 2001-2013
</metadata>
<g transform="translate(0.000000,128.000000) scale(0.100000,-0.100000)"
fill="#000000" stroke="none">
<path d="M489 1260 c-36 -9 -90 -28 -120 -42 -42 -19 -69 -24 -123 -23 -53 1
-74 -3 -92 -18 -28 -22 -31 -62 -7 -89 15 -17 15 -21 -15 -61 -81 -108 -122
-224 -127 -362 -5 -120 14 -206 71 -321 25 -52 37 -88 35 -110 -3 -36 26 -64
67 -64 13 0 52 -21 88 -46 72 -52 176 -98 244 -110 25 -5 92 -8 150 -7 85 0
119 5 177 26 120 42 233 119 295 201 19 25 46 47 63 52 38 11 62 56 47 89 -8
17 -6 38 10 86 31 95 31 269 -1 364 -34 104 -77 177 -145 249 -129 135 -263
195 -451 201 -72 2 -119 -2 -166 -15z"/>
</g>
</svg>
